<?xml version="1.0" encoding="utf-8" ?>
<COLLADA xmlns="http://www.collada.org/2005/11/COLLADASchema" version="1.4.1">
    <asset>
        <contributor>
            <authoring_tool>modo 601 [Build 48460], Microsoft Windows 7 (6.1.7600)</authoring_tool>
            <comments>
                Plug-in: [Build 48460];
                Use Absolute Path: No;
                Merge Reference Items: No;
                Save Hidden Items: No;
                Save Cameras: No;
                Save Lights: No;
                Save Locators: No;
                Save Triangles as Triangles: Yes;
                Bake Matrices: Yes;
                Save Vertex Normals: Yes;
                Save UV Texture Coordinates: Yes;
                Save Vertex Colors: Yes;
                Save Vertex Weights: Yes;
                Save Animation: No;
                Sample Animation: No;
                Sample Animation Start: 0;
                Sample Animation End: 120;
                Save modo Profile: Yes;
                Save Maya Profile: Yes;
                Save 3ds Max Profile: Yes;
                Formatted Arrays: Yes;
            </comments>
            <source_data>file://Untitled</source_data>
        </contributor>
        <created>2012-04-19T13:40:21Z</created>
        <modified>2012-04-19T13:40:21Z</modified>
        <unit name="game" meter="1" />
        <up_axis>Z_UP</up_axis>
    </asset>
    <library_images>
        <image id="Image0001" name="Image0001">
            <init_from>../butacavip/images/difuse.JPG</init_from>
        </image>
        <image id="Image0002" name="Image0002">
            <init_from>../butacavip/images/normal.JPG</init_from>
        </image>
    </library_images>
    <library_materials>
        <material id="Material-bbvipmat" name="bbvipmat">
            <instance_effect url="#Effect-bbvipmat" />
        </material>
    </library_materials>
    <library_effects>
        <effect id="Effect-bbvipmat" name="bbvipmat">
            <profile_COMMON>
                <newparam sid="Image0001-surface">
                    <surface type="2D">
                        <init_from>Image0001</init_from>
                        <format>A8R8G8B8</format>
                    </surface>
                </newparam>
                <newparam sid="Image0001-sampler">
                    <sampler2D>
                        <source>Image0001-surface</source>
                        <minfilter>LINEAR_MIPMAP_LINEAR</minfilter>
                        <magfilter>LINEAR</magfilter>
                    </sampler2D>
                </newparam>
                <technique sid="common">
                    <phong>
                        <diffuse>
                            <texture texture="Image0001-sampler" texcoord="uvvip" />
                        </diffuse>
                        <specular>
                            <color sid="specular_effect_rgb">0.2 0.2 0.2 1</color>
                        </specular>
                        <shininess>
                            <float sid="specular_effect_rgb">256</float>
                        </shininess>
                    </phong>
                </technique>
            </profile_COMMON>
        </effect>
    </library_effects>
    <library_geometries>
        <geometry id="Geometry-mesh016" name="Mesh">
            <mesh>
                <source id="Geometry-mesh016-positions" name="positions">
                    <float_array id="Geometry-mesh016-positions-array" count="795">
                        0.42468 -0.432078 -0.00249394
                        0.42468 -0.432078 0.33526
                        0.42468 -0.425575 0.372844
                        0.42468 0.428451 0.372844
                        0.42468 0.434954 0.33526
                        0.42468 0.434954 -0.00249394
                        0.42468 0.305932 -0.00249394
                        0.42468 0.2501 0.0721698
                        0.42468 -0.24347 0.0721698
                        0.42468 -0.293672 -0.00249394
                        0.42468 0.40244 0.446836
                        0.42468 -0.399564 0.446836
                        0.42468 0.352586 0.520827
                        0.42468 -0.34971 0.520827
                        0.42468 0.309375 0.557823
                        0.42468 -0.306499 0.557823
                        0.42468 0.219551 0.594819
                        0.42468 -0.216674 0.594819
                        0.42468 -0.293672 0.33526
                        0.42468 0.2501 0.33526
                        0.42468 -0.432078 -0.00249394
                        0.42468 -0.432078 0.33526
                        0.42468 -0.425575 0.372844
                        0.42468 0.428451 0.372844
                        0.42468 0.434954 0.33526
                        0.42468 0.434954 -0.00249394
                        0.28746 -0.432078 -0.00249394
                        0.28746 -0.432078 0.33526
                        0.28746 -0.425575 0.372844
                        0.28746 0.428451 0.372844
                        0.28746 0.434954 0.33526
                        0.28746 0.434954 -0.00249394
                        0.28746 0.305932 -0.00249394
                        0.28746 -0.293672 -0.00249394
                        0.28746 0.40244 0.446836
                        0.42468 0.40244 0.446836
                        0.28746 -0.399564 0.446836
                        0.42468 -0.399564 0.446836
                        0.28746 0.352586 0.520827
                        0.42468 0.352586 0.520827
                        0.28746 -0.34971 0.520827
                        0.42468 -0.34971 0.520827
                        0.28746 0.309375 0.557823
                        0.42468 0.309375 0.557823
                        0.42468 -0.306499 0.557823
                        0.28746 -0.306499 0.557823
                        0.28746 0.219551 0.594819
                        0.42468 0.219551 0.594819
                        0.42468 -0.216674 0.594819
                        0.28746 -0.216674 0.594819
                        0.28746 -0.289245 0.372844
                        0.28746 0.301364 0.372844
                        0.210776 0.391746 0.602792
                        0.210865 0.371429 1.07931
                        0.221875 0.153404 0.659195
                        0.215772 0.21149 1.15863
                        0.262253 0.217997 1.1617
                        0.380945 0.158376 0.658341
                        0.210776 0.259647 0.633215
                        0.288293 0.391746 0.602792
                        0.305445 0.127549 0.663638
                        0.238319 0.385353 1.16345
                        0.24002 0.207908 1.16022
                        0.210776 0.193598 0.648426
                        0.215649 0.254665 1.15946
                        0.264145 0.254665 1.16263
                        0.394061 0.193598 0.648426
                        0.289302 0.188617 0.626795
                        0.35278 0.391746 0.602792
                        0.35278 0.136499 0.6621
                        0.336637 0.188523 0.626817
                        0.239371 0.254522 1.1691
                        0.252144 0.211439 1.16101
                        0.251495 0.254516 1.16989
                        0.251652 0.385656 1.1643
                        0.223547 0.372404 1.17032
                        0.223838 0.217824 1.16742
                        0.253398 0.222692 1.16942
                        0.239321 0.377694 1.17143
                        0.238272 0.21644 1.16835
                        0.223782 0.25453 1.16808
                        0.254959 0.254729 1.17012
                        0.248031 0.219259 1.16901
                        0.248429 0.377005 1.172
                        0.22698 0.157849 0.634079
                        0.35364 0.160576 0.632787
                        0.210978 0.285439 0.611584
                        0.289302 0.370836 0.584829
                        0.288986 0.138721 0.638285
                        0.215014 0.190313 0.626365
                        0.361824 0.19153 0.626037
                        0.336353 0.370836 0.584829
                        0.33037 0.146165 0.63674
                        0.210776 0.375448 0.0446258
                        0.287688 0.375448 0.0446258
                        0.210978 0.240066 0.0644275
                        0.287789 0.389691 0.579309
                        -0.210314 0.391746 0.602792
                        -0.210403 0.371429 1.07931
                        -0.221413 0.153404 0.659195
                        -0.211563 0.21149 1.14875
                        -0.257908 0.217997 1.15343
                        -0.380483 0.158376 0.658341
                        -0.210314 0.259647 0.633215
                        -0.287831 0.391746 0.602792
                        -0.304984 0.127549 0.663638
                        -0.235143 0.379559 1.15219
                        -0.235741 0.207908 1.15118
                        -0.210314 0.193598 0.648426
                        -0.211412 0.254665 1.14957
                        -0.259767 0.254665 1.15443
                        -0.3936 0.193598 0.648426
                        -0.28884 0.188617 0.626795
                        -0.352319 0.391746 0.610628
                        -0.352319 0.136499 0.6621
                        -0.336175 0.188523 0.626817
                        -0.234783 0.254522 1.16003
                        -0.24783 0.211439 1.1524
                        -0.24334 0.254516 1.16024
                        -0.247424 0.38283 1.15569
                        -0.218925 0.372404 1.1607
                        -0.219317 0.217824 1.15782
                        -0.24879 0.222692 1.16084
                        -0.234651 0.377189 1.16236
                        -0.23371 0.21644 1.15925
                        -0.219239 0.25453 1.15847
                        -0.250326 0.254729 1.1616
                        -0.24344 0.219259 1.16025
                        -0.243733 0.377005 1.16325
                        -0.353178 0.160576 0.632787
                        -0.210516 0.288466 0.611584
                        -0.214552 0.190313 0.626365
                        -0.361362 0.19153 0.626037
                        -0.335891 0.370836 0.602991
                        -0.329909 0.146165 0.63674
                        -0.210314 0.375448 0.0446258
                        -0.287226 0.375448 0.0446258
                        -0.210516 0.240066 0.0644275
                        0.207951 0.156512 0.0727129
                        0.283248 0.156512 0.0727129
                        -0.199417 0.156512 0.0727129
                        -0.282786 0.156512 0.0727129
                        0.222152 0.372296 1.16031
                        -0.217732 0.372267 1.14931
                        -0.226518 0.157849 0.634079
                        -0.281697 -0.373161 0.392871
                        0.284151 -0.373161 0.392871
                        -0.29078 -0.365667 0.444178
                        -0.29078 -0.293559 0.478974
                        -0.29078 0.329825 0.411724
                        0.292373 0.329825 0.411724
                        0.292373 -0.293559 0.478974
                        0.292373 -0.365667 0.444178
                        -0.205321 0.360021 1.06547
                        -0.205321 0.385641 1.09824
                        -0.205321 0.39773 1.13563
                        -0.205321 0.394655 1.16099
                        -0.205321 0.371301 1.19032
                        -0.205321 0.33085 1.20725
                        -0.205321 0.284141 1.20725
                        -0.205321 0.247435 1.19032
                        -0.205321 0.230269 1.16099
                        -0.205321 0.230269 1.11628
                        -0.205321 0.247435 1.08276
                        0.210592 0.360021 1.06547
                        0.210592 0.385641 1.09824
                        0.210592 0.39773 1.13563
                        0.210592 0.394655 1.16099
                        0.210592 0.371301 1.19032
                        0.210592 0.33085 1.20725
                        0.210592 0.284141 1.20725
                        0.210592 0.247435 1.19032
                        0.210592 0.230269 1.16099
                        0.210592 0.230269 1.11628
                        0.210592 0.247435 1.08276
                        -0.214402 0.357092 1.06983
                        -0.214402 0.381758 1.10158
                        -0.214402 0.392808 1.13563
                        -0.214402 0.390026 1.15937
                        -0.214402 0.368372 1.18649
                        -0.214402 0.329893 1.20258
                        -0.214402 0.285098 1.20258
                        -0.214402 0.249587 1.18649
                        -0.214402 0.233671 1.15937
                        -0.214402 0.233671 1.11812
                        -0.214402 0.249587 1.08713
                        0.219673 0.357092 1.06983
                        0.219673 0.381758 1.10158
                        0.219673 0.392808 1.13563
                        0.219673 0.390026 1.15937
                        0.219673 0.368372 1.18649
                        0.219673 0.329893 1.20258
                        0.219673 0.285098 1.20258
                        0.219673 0.249587 1.18649
                        0.219673 0.233671 1.15937
                        0.219673 0.233671 1.11812
                        0.219673 0.249587 1.08713
                        -0.214402 0.30334 1.07848
                        0.219673 0.301727 1.07874
                        -0.290489 -0.365673 0.444171
                        0.291857 -0.365673 0.444171
                        -0.290489 -0.393874 0.0165995
                        -0.290489 -0.397082 0.314802
                        0.291857 -0.397082 0.314802
                        0.291857 -0.393874 0.0165995
                        -0.215807 0.175148 0.415152
                        -0.215807 0.228647 0.752484
                        0.222794 0.228647 0.752484
                        0.222794 0.175148 0.415152
                        -0.215807 0.228649 0.7525
                        -0.215807 0.240826 1.1074
                        0.222794 0.240826 1.1074
                        0.222794 0.228649 0.7525
                        -0.424686 -0.432078 -0.00249394
                        -0.424686 -0.432078 0.33526
                        -0.424686 -0.425575 0.372844
                        -0.424686 0.428451 0.372844
                        -0.424686 0.434954 0.33526
                        -0.424686 0.434954 -0.00249394
                        -0.424686 0.305932 -0.00249394
                        -0.424686 0.2501 0.0721698
                        -0.424686 -0.24347 0.0721698
                        -0.424686 -0.293672 -0.00249394
                        -0.424686 0.40244 0.446836
                        -0.424686 -0.399564 0.446836
                        -0.424686 0.352586 0.520827
                        -0.424686 -0.34971 0.520827
                        -0.424686 0.309375 0.557823
                        -0.424686 -0.306499 0.557823
                        -0.424686 0.219551 0.594819
                        -0.424686 -0.216674 0.594819
                        -0.424686 -0.293672 0.33526
                        -0.424686 0.2501 0.33526
                        -0.424686 -0.432078 -0.00249394
                        -0.424686 -0.432078 0.33526
                        -0.424686 -0.425575 0.372844
                        -0.424686 0.428451 0.372844
                        -0.424686 0.434954 0.33526
                        -0.424686 0.434954 -0.00249394
                        -0.287466 -0.432078 -0.00249394
                        -0.287466 -0.432078 0.33526
                        -0.287466 -0.425575 0.372844
                        -0.287466 0.428451 0.372844
                        -0.287466 0.434954 0.33526
                        -0.287466 0.434954 -0.00249394
                        -0.287466 0.305932 -0.00249394
                        -0.287466 -0.293672 -0.00249394
                        -0.287466 0.40244 0.446836
                        -0.424686 0.40244 0.446836
                        -0.287466 -0.399564 0.446836
                        -0.424686 -0.399564 0.446836
                        -0.287466 0.352586 0.520827
                        -0.424686 0.352586 0.520827
                        -0.287466 -0.34971 0.520827
                        -0.424686 -0.34971 0.520827
                        -0.287466 0.309375 0.557823
                        -0.424686 0.309375 0.557823
                        -0.424686 -0.306499 0.557823
                        -0.287466 -0.306499 0.557823
                        -0.287466 0.219551 0.594819
                        -0.424686 0.219551 0.594819
                        -0.424686 -0.216674 0.594819
                        -0.287466 -0.216674 0.594819
                        -0.287466 -0.289245 0.372844
                        -0.287466 0.301364 0.372844
                    </float_array>
                    <technique_common>
                        <accessor count="265" source="#Geometry-mesh016-positions-array" stride="3">
                            <param name="X" type="float" />
                            <param name="Y" type="float" />
                            <param name="Z" type="float" />
                        </accessor>
                    </technique_common>
                </source>
                <source id="Geometry-mesh016-normals" name="normals">
                    <float_array id="Geometry-mesh016-normals-array" count="918">
                        1 0 0
                        -1 0 0
                        0 0.715795 0.69831
                        0 0.775931 0.630818
                        0 0.87364 0.486573
                        0 0.911945 0.410312
                        0 1 8.82368e-008
                        0 0.996333 0.0855567
                        0 -0.998373 0.0570149
                        0 -0.993477 0.11403
                        0 -0.974382 0.224901
                        0 -0.960353 0.278786
                        0 -0.911945 0.410313
                        0 -0.873639 0.486575
                        0 -0.775931 0.630818
                        0 -0.715798 0.698308
                        0 -0.258246 0.966079
                        0 -0.129123 0.991629
                        0 0.129123 0.991629
                        0 0.258247 0.966079
                        0 0.960353 0.278786
                        0 0.974382 0.2249
                        0 -0.56685 0.823821
                        0 -0.475988 0.879452
                        0 0.475987 0.879452
                        0 0.566847 0.823823
                        0 -1 -8.82368e-008
                        0.997026 0.0719138 -0.0277058
                        0.999739 0.0188704 -0.0128652
                        0.190472 -0.0187801 0.981513
                        0.108178 -0.0124024 0.994054
                        0.10456 -0.0224209 0.994266
                        -0.193969 -0.0360493 -0.980345
                        0.00933071 -0.18488 -0.982717
                        -0.288884 -0.205166 -0.935122
                        -0.0650997 -0.0188913 0.9977
                        -0.0648972 -0.0186654 0.997717
                        -0.0653427 -0.0187643 0.997686
                        0.147283 -0.201853 -0.968278
                        0.290483 -0.250477 -0.923515
                        -0.00699287 -0.222623 -0.974879
                        -0.0355204 0.0721696 -0.99676
                        -0.311737 0.100212 -0.944869
                        0.00946892 -0.18729 -0.982259
                        -0.000356517 -0.231036 -0.972945
                        0.0258542 -0.437891 -0.898656
                        0.629205 -0.175302 -0.757212
                        0.555031 -0.482319 -0.677723
                        0.367203 -0.269005 -0.890392
                        0.495449 -0.595864 -0.632042
                        0.586952 -0.281049 -0.759275
                        -0.541521 -0.168527 -0.823622
                        -0.366729 -0.233049 -0.900665
                        -0.55503 -0.482319 -0.677724
                        -0.495447 -0.595864 -0.632042
                        -0.59015 -0.255078 -0.765936
                        0.631959 -0.012953 0.774893
                        0.849063 -0.0354956 0.527098
                        0.774939 0.0512547 0.629954
                        0.946445 0.13719 0.292269
                        -0.953886 0.234477 0.187408
                        -0.970147 0.0201183 0.241681
                        -0.941096 0.136322 0.309443
                        -0.836128 -0.0347369 0.547434
                        0.804459 -0.533557 0.261079
                        0.468915 -0.72244 0.508133
                        0.450511 -0.865277 0.219855
                        0.28094 -0.822479 0.494572
                        -0.122195 -0.886578 0.446148
                        0.00703471 -0.704596 0.709574
                        -0.1447 -0.848439 0.50913
                        -0.113785 -0.753524 0.647498
                        0.0999317 -0.0184992 0.994822
                        0.0804309 -0.0168374 0.996618
                        0.100199 -0.0177468 0.994809
                        0.0988512 -0.0176816 0.994945
                        0 -0.998142 0.0609367
                        -0.0115625 -0.998161 0.0595129
                        -0.0231233 -0.998044 0.058081
                        -0.308598 -0.871909 -0.380186
                        -0.145419 -0.811489 -0.565985
                        -0.142113 -0.971491 -0.189758
                        -0.0646241 -0.0184285 0.997739
                        -0.063713 -0.0182143 0.997802
                        -0.0640845 -0.0176781 0.997788
                        0 0.651621 -0.758545
                        4.1855e-006 0.651626 -0.75854
                        8.37099e-006 0.651632 -0.758535
                        0.0772421 -0.00582389 0.996995
                        0.28012 -0.167234 -0.945286
                        0.738707 -0.00133331 -0.674026
                        0.660078 -0.05393 -0.749258
                        0.955139 0.239204 0.174616
                        0.972901 0.0200597 0.230349
                        -0.0651493 -0.0185004 0.997704
                        -0.0642956 -0.0190183 0.99775
                        -0.0641441 -0.0189038 0.997762
                        -0.0504349 -0.984151 0.170009
                        0.228547 -0.966862 0.113769
                        0.0988378 -0.949982 0.296253
                        0.162401 -0.84738 0.505543
                        0.987847 -0.126779 -0.089922
                        0.998848 0.0471348 0.00903062
                        0.999691 0.0137168 -0.0207067
                        0.991375 0.130543 -0.0115476
                        0.111499 0.993757 0.00389134
                        0 0.999999 0.00157901
                        0 0.999574 -0.0291862
                        -0.0644569 -0.0185881 0.997747
                        0.000436577 -0.224405 -0.974496
                        0.0886959 -0.225044 -0.970303
                        -0.0075358 -0.225619 -0.974187
                        0.15056 -0.00699438 0.988576
                        0.0986788 -0.0189881 0.994938
                        -0.0770748 -0.0119748 0.996953
                        0.318617 -0.212737 -0.923702
                        0.999996 -0.00153645 0.00237681
                        0.990881 -0.134544 0.00728479
                        0.981526 -0.168827 -0.0900186
                        0.948934 -0.293213 -0.116407
                        -0.999781 -0.0174212 0.0116164
                        -0.986111 -0.148982 -0.0734093
                        -0.990958 -0.133399 0.0143825
                        -0.949568 -0.292482 -0.113029
                        -0.00137652 -0.227711 -0.973728
                        0.000356518 -0.231036 -0.972945
                        -0.0887146 0.996012 -0.0094716
                        -0.0058295 0.999886 -0.0139087
                        0.00592331 0.998845 -0.0476746
                        0 0.999645 -0.0266293
                        0.00444072 0.999583 -0.0285467
                        -0.850695 0.006008 0.525624
                        -0.728613 0.00225899 0.684921
                        -0.72932 -0.0142074 0.684025
                        -0.731262 -0.0150921 0.68193
                        -0.0157826 -0.218063 -0.975807
                        0.75064 0.0142311 0.660558
                        0.752723 -0.0141968 0.658184
                        0.752029 0.00445968 0.659114
                        0.754582 -0.0150771 0.656033
                        0.00194192 0.99987 0.0159807
                        0.210188 0.963904 0.163434
                        0.290133 0.947134 0.136965
                        0.995708 -0.0315925 -0.0869893
                        -0.0654309 -0.0177488 0.997699
                        -0.062388 0.676513 0.733784
                        -0.214492 0.677324 0.703722
                        -0.0258964 0.700046 0.713628
                        -0.292254 0.671245 0.681188
                        -0.995831 -0.0319674 -0.0854265
                        -0.987545 -0.127752 -0.0918402
                        -0.999607 -0.0192792 -0.0203725
                        0.18005 0.918588 0.351821
                        0.155377 0.963712 0.217066
                        -0.604507 -0.0129531 0.796494
                        -0.536511 0.0282218 0.843422
                        -0.753849 0.0515504 0.655022
                        -0.394217 -0.917433 0.0539333
                        -0.0791783 -0.996831 0.00768706
                        -0.253294 -0.861152 0.440748
                        0.0208798 -0.950511 0.309987
                        -0.265384 -0.823448 0.501502
                        0.395703 -0.917096 0.0485281
                        0.0295743 -0.991982 -0.122873
                        -0.0112269 -0.951465 0.307554
                        -0.0896764 -0.950805 0.296527
                        -0.254552 -0.96534 -0.0576295
                        0.390333 0.92019 0.0298515
                        0.349051 0.929827 0.116559
                        0.0115624 -0.998161 0.0595129
                        0.0231233 -0.998044 0.058081
                        0.629905 -0.358392 0.689039
                        0.557236 -0.242681 0.794099
                        -0.920977 -0.344109 -0.182732
                        -0.609285 -0.359575 0.706737
                        -0.529149 -0.242694 0.813082
                        0.015776 -0.218067 -0.975806
                        0.0262712 -0.383555 -0.923144
                        -0.999851 -0.0158809 0.00676101
                        0 0.999941 0.0108453
                        -0.0116487 0.999881 0.0100846
                        -0.314442 0.948593 0.0360271
                        -0.538504 0.803141 0.254908
                        -0.384712 0.908692 0.162095
                        -0.308787 0.949651 0.0530488
                        0.173789 0.9844 0.0274633
                        0.999956 -0.00767535 -0.00542946
                        0.999795 -0.0202284 0.000350003
                        0.999925 0.00487922 -0.0112079
                        0.604014 -0.178868 -0.776643
                        0.528778 -0.611356 0.588759
                        0.26737 -0.619384 0.738157
                        0.308396 -0.87156 -0.38115
                        0.215166 -0.830816 -0.513272
                        -0.140813 -0.937833 -0.31724
                        -0.277462 -0.780698 0.559934
                        -0.241408 -0.619378 0.747056
                        -0.511168 -0.612541 0.60291
                        -0.803193 -0.530543 0.270934
                        -0.448199 -0.86473 0.226626
                        -0.454522 -0.723885 0.519038
                        -0.273732 -0.936 -0.221303
                        0.0993721 -0.0190628 0.994868
                        -0.999793 -0.0203364 -0.000490665
                        -0.999948 -0.00834341 -0.00581428
                        -0.999931 0.003651 -0.0111369
                        0.0920642 -0.815492 0.571399
                        0.325613 -0.774158 -0.542821
                        -0.0723461 -0.816249 0.573153
                        0.0177263 -0.70456 0.709423
                        -0.325613 -0.774158 -0.542822
                        -0.828115 0.213033 0.518501
                        -0.990413 -0.00460378 0.138061
                        -0.901397 0.016057 0.432695
                        0.88732 -0.380943 0.259896
                        0.847775 -0.0571077 0.527272
                        0.953694 -0.163919 0.252189
                        -0.885195 -0.378643 0.270295
                        -0.83539 -0.0571703 0.546676
                        -0.951156 -0.161869 0.26287
                        -0.395501 0.786727 0.473961
                        -0.706635 0.498015 0.502641
                        -0.319947 0.946809 0.034448
                        -0.486005 0.872004 0.0583878
                        0.136575 -0.884877 0.445353
                        0.136298 -0.753491 0.643175
                        -0.999979 -0.00206115 0.00611014
                        -0.999351 0.0359083 -0.00297774
                        0.920975 -0.344111 -0.182737
                        -0.0723872 -0.554668 -0.828917
                        0.0731756 -0.787054 -0.612528
                        -0.0387272 -0.83809 -0.544156
                        0.749853 0.0417678 0.660285
                        0 -0.262968 0.964805
                        0 0.107257 0.994231
                        0 -0.0759572 0.997111
                        0 -0.434597 0.900625
                        -0.287285 -0.166168 0.943321
                        0.205591 -0.181817 0.9616
                        -0.205167 0.218301 0.954071
                        0.286749 0.224348 0.931366
                        -0.170176 -0.950001 -0.261798
                        -0.220654 -0.930566 0.292162
                        -0.372585 -0.916887 -0.143173
                        -0.377762 -0.893928 0.241224
                        0.334556 -0.515031 0.789187
                        0.455902 -0.252386 0.853495
                        0.414526 -0.678844 0.606085
                        0.299579 0.82776 -0.474412
                        0.244841 0.965009 -0.0938637
                        0.474992 0.800963 -0.364474
                        0.474669 0.875801 -0.0875342
                        -0.325008 0.941239 -0.0918668
                        -0.0986468 0.936367 0.336875
                        0.165153 0.939264 0.300845
                        0.32431 0.830652 0.452592
                        0.206955 0.616244 0.759877
                        0.477256 0.81038 0.339869
                        0.467344 0.470741 0.748327
                        0.380649 -0.899292 -0.215361
                        0.259 -0.939244 -0.225253
                        0.393556 -0.818013 -0.419487
                        0.134172 -0.88202 -0.451706
                        -0.201733 -0.871769 -0.446456
                        -0.338309 -0.638813 0.690989
                        -0.414528 -0.678843 0.606085
                        0.165292 0.777031 -0.607373
                        0.486334 0.689202 -0.537104
                        -0.289051 0.61375 0.734684
                        -0.0958789 0.897115 0.431267
                        0.16045 0.873848 0.458961
                        -0.467346 0.470741 0.748326
                        -0.463652 0.115895 0.878405
                        -0.214315 0.852138 -0.477421
                        -0.474994 0.800962 -0.364474
                        -0.474671 0.8758 -0.0875342
                        0.196313 -0.947392 0.252805
                        0.371139 -0.914645 0.160251
                        -0.1878 -0.516985 0.835139
                        0.190594 -0.619968 0.761126
                        -0.455904 -0.252386 0.853495
                        -0.267951 -0.500635 0.823144
                        -0.24303 0.829024 0.503642
                        -0.477258 0.810379 0.339869
                        0.271823 -0.697505 0.663023
                        -0.102321 -0.663786 0.740891
                        0.101142 -0.772837 0.626493
                        -0.248846 0.763084 -0.596472
                        -0.486336 0.689201 -0.537103
                        -0.393558 -0.818012 -0.419486
                        0.46365 0.115895 0.878406
                        -0.243063 0.940289 0.238279
                        0.324349 0.904915 0.275547
                        0 -0.997407 0.0719651
                        0 -0.97177 0.235931
                        0 -0.987951 0.154764
                        0 -0.999942 -0.0107598
                        0 -0.987656 0.156635
                        0 -0.999412 0.0342918
                        0 0.87364 0.486573
                        0 0.911945 0.410312
                        0 -0.974382 0.224901
                        0 -0.775931 0.630818
                        0 -0.873639 0.486575
                        0 -0.56685 0.823821
                        0 -0.475988 0.879452
                    </float_array>
                    <technique_common>
                        <accessor count="306" source="#Geometry-mesh016-normals-array" stride="3">
                            <param name="X" type="float" />
                            <param name="Y" type="float" />
                            <param name="Z" type="float" />
                        </accessor>
                    </technique_common>
                </source>
                <source id="Geometry-mesh016-uvvip" name="uvvip">
                    <float_array id="Geometry-mesh016-uvvip-array" count="468">
                        0.1678 0.854359
                        0.179264 0.829748
                        0.30652 0.852816
                        0.306845 0.91833
                        0.324992 0.915014
                        0.393526 0.87866
                        0.360687 0.901301
                        0.411903 0.858001
                        0.42977 0.814405
                        0.394679 0.53953
                        0.305244 0.589926
                        0.358805 0.515766
                        0.412658 0.560252
                        0.430747 0.603509
                        0.173894 0.564477
                        0.178107 0.591128
                        0.304811 0.500557
                        0.322988 0.503529
                        0.173592 0.5021
                        0.171625 0.920773
                        0.717223 0.568434
                        0.629031 0.57204
                        0.700222 0.54639
                        0.732428 0.6123
                        0.612618 0.502241
                        0.630775 0.505878
                        0.665751 0.522848
                        0.621474 0.858666
                        0.708742 0.86492
                        0.692635 0.883617
                        0.730246 0.821802
                        0.601525 0.923016
                        0.619848 0.919141
                        0.656089 0.907265
                        0.320238 0.92818
                        0.32053 0.9975
                        0.273881 0.92818
                        0.274173 0.9975
                        0.471131 0.565092
                        0.471501 0.499921
                        0.0378177 0.92818
                        0.213311 0.92818
                        0.0381106 0.9975
                        0.213604 0.9975
                        0.813845 0.92818
                        0.814137 0.9975
                        0.794029 0.92818
                        0.794322 0.9975
                        0.461263 0.85608
                        0.459613 0.918695
                        0.753282 0.92818
                        0.753575 0.9975
                        0.70693 0.92818
                        0.707223 0.9975
                        0.626906 0.92818
                        0.627198 0.9975
                        0.400266 0.92818
                        0.400558 0.9975
                        0.23313 0.92818
                        0.233422 0.9975
                        0.677376 0.92818
                        0.677669 0.9975
                        0.349793 0.92818
                        0.350086 0.9975
                        0.979815 0.92818
                        0.980108 0.9975
                        0.215833 0.26235
                        0.197644 0.25159
                        0.207556 0.248804
                        0.595867 0.473776
                        0.601129 0.474861
                        0.535056 0.482287
                        0.545745 0.269669
                        0.609678 0.282217
                        0.603444 0.284993
                        0.207814 0.47793
                        0.142443 0.472624
                        0.14478 0.471912
                        0.189885 0.262394
                        0.127415 0.281928
                        0.120028 0.278848
                        0.523844 0.262777
                        0.544846 0.270549
                        0.623721 0.274921
                        0.668502 0.279708
                        0.657633 0.287769
                        0.133259 0.287159
                        0.124015 0.290421
                        0.118935 0.285222
                        0.598259 0.28942
                        0.60664 0.292692
                        0.61068 0.287848
                        0.151819 0.469343
                        0.210166 0.476581
                        0.533354 0.481257
                        0.588069 0.47183
                        0.139434 0.46866
                        0.113836 0.292255
                        0.134916 0.469384
                        0.130047 0.47048
                        0.130134 0.471987
                        0.120627 0.47342
                        0.124024 0.473744
                        0.622461 0.478607
                        0.607777 0.476175
                        0.614247 0.474291
                        0.608503 0.473045
                        0.0531359 0.00122333
                        0.0983411 0.00122333
                        0.0570811 0.274467
                        0.104311 0.27071
                        0.615867 0.294643
                        0.617833 0.288147
                        0.630433 0.29648
                        0.134055 0.475164
                        0.134353 0.471019
                        0.192108 0.265806
                        0.604547 0.472407
                        0.120777 0.47858
                        0.211918 0.483637
                        0.210591 0.479741
                        0.661013 0.296699
                        0.607967 0.471655
                        0.61659 0.473752
                        0.693925 0.00122333
                        0.717786 0.278698
                        0.735589 0.00122333
                        0.483684 0.260397
                        0.538854 0.00122333
                        0.494385 0.00122333
                        0.13693 0.470553
                        0.0949129 0.28575
                        0.110024 0.286143
                        0.602202 0.47214
                        0.5333 0.483791
                        0.628272 0.480725
                        0.675706 0.293633
                        0.107656 0.481611
                        0.0479984 0.289434
                        0.0643058 0.293274
                        0.0675736 0.28396
                        0.253646 0.260028
                        0.207506 0.00122333
                        0.252623 0.00122333
                        0.52695 0.482064
                        0.701914 0.291274
                        0.21695 0.478148
                        0.0200653 0.28523
                        0.00759229 0.270817
                        0.603498 0.470959
                        0.0979632 0.29374
                        0.528317 0.490458
                        0.532731 0.487158
                        0.645149 0.00122333
                        0.599353 0.470576
                        0.0306507 0.461799
                        0.216535 0.486585
                        0.239669 0.457039
                        0.505803 0.457039
                        0.0110073 0.00122333
                        0.998448 0.237771
                        0.998448 0.508869
                        0.746943 0.237131
                        0.746943 0.508229
                        0.998448 0.202515
                        0.746943 0.201875
                        0.567608 0.634861
                        0.551841 0.63686
                        0.540569 0.587332
                        0.579051 0.627774
                        0.57991 0.615081
                        0.57138 0.587332
                        0.534307 0.637026
                        0.517721 0.635791
                        0.503702 0.631788
                        0.495795 0.624301
                        0.496725 0.612571
                        0.507242 0.587332
                        0.51749 0.809796
                        0.533372 0.809567
                        0.536276 0.845789
                        0.565215 0.813237
                        0.575574 0.820145
                        0.573629 0.832586
                        0.563866 0.845789
                        0.504216 0.812892
                        0.496939 0.819277
                        0.550349 0.811459
                        0.498464 0.828772
                        0.507163 0.845789
                        0.552025 0.639314
                        0.550504 0.808349
                        0.534221 0.639494
                        0.533352 0.807148
                        0.600316 0.635459
                        0.580927 0.635541
                        0.600152 0.630764
                        0.565439 0.810297
                        0.476515 0.81166
                        0.493554 0.811139
                        0.476845 0.816803
                        0.492989 0.633583
                        0.503011 0.635553
                        0.503297 0.809497
                        0.51723 0.807632
                        0.597211 0.818208
                        0.597599 0.813466
                        0.612547 0.818062
                        0.61376 0.813738
                        0.616474 0.635686
                        0.567606 0.637727
                        0.4586 0.811753
                        0.459186 0.816296
                        0.517468 0.638098
                        0.475829 0.633201
                        0.475954 0.628043
                        0.578275 0.812744
                        0.457912 0.633262
                        0.458447 0.62875
                        0.615387 0.631351
                        0.998448 0.13637
                        0.998448 0.19692
                        0.744943 0.135636
                        0.744943 0.196185
                        0.997848 0.00413445
                        0.748443 0.0045
                        0.744943 0.717823
                        0.744943 0.524947
                        0.998448 0.715511
                        0.998448 0.522635
                        0.744943 0.91753
                        0.744943 0.721458
                        0.998448 0.915344
                        0.998448 0.719272
                    </float_array>
                    <technique_common>
                        <accessor count="234" source="#Geometry-mesh016-uvvip-array" stride="2">
                            <param name="S" type="float" />
                            <param name="T" type="float" />
                        </accessor>
                    </technique_common>
                </source>
                <vertices id="Geometry-mesh016-vertices">
                    <input semantic="POSITION" source="#Geometry-mesh016-positions" />
                </vertices>
                <polylist count="379" material="Material-bbvipmat">
                    <input semantic="VERTEX" source="#Geometry-mesh016-vertices" offset="0" />
                    <input semantic="NORMAL" source="#Geometry-mesh016-normals" offset="1" />
                    <input semantic="TEXCOORD" source="#Geometry-mesh016-uvvip" offset="2" set="0" />
                    <vcount>3 3 3 3 3 3 3 3 3 3 3 3 3 3 3 3 3 3 3 3 3 3 3 3 3 3 3 3 3 3 3 3 3 3 3 3 3 3 3 3 3 3 3 3 3 3 3 3 3 3 3 3 3 3 3 3 3 3 3 3 3 3 3 3 3 3 3 3 3 3 3 3 3 3 3 3 3 3 3 3 3 3 3 3 3 3 3 3 3 3 3 3 3 3 3 3 3 3 3 3 3 3 3 3 3 3 3 3 3 3 3 3 3 3 3 3 3 3 3 3 3 3 3 3 3 3 3 3 3 3 3 3 3 3 3 3 3 3 3 3 3 3 3 3 3 3 3 3 3 3 3 3 3 3 3 3 3 3 3 3 3 3 3 3 3 3 3 3 3 3 3 3 3 3 3 3 3 3 3 3 3 3 3 3 3 3 3 3 3 3 3 3 3 3 3 3 3 3 3 3 3 3 3 3 3 3 3 3 3 3 3 3 3 3 3 3 3 3 3 3 3 3 3 4 4 3 3 3 3 3 3 3 3 3 3 3 3 3 3 3 3 3 3 3 3 3 3 3 3 3 3 3 3 3 3 3 3 3 3 3 3 3 3 3 3 3 3 3 3 3 3 3 3 3 3 3 3 3 3 3 3 3 3 3 3 3 3 3 3 3 3 3 3 3 3 3 3 3 3 3 3 3 3 3 3 3 3 3 3 3 3 3 3 3 3 3 3 3 3 3 3 3 3 3 3 3 3 3 3 3 3 3 3 3 3 3 3 3 3 3 3 3 3 3 3 3 3 3 3 3 3 3 3 3 3 3 3 3 3 3 3 3 3 3 3 3 3 3 3 3 3 3 3 3 3 3 3 3 3</vcount>
                    <p>9 0 0 8 0 1 18 0 2 1 0 3 18 0 2 2 0 4 18 0 2 13 0 5 11 0 6 18 0 2 15 0 7 13 0 5 18 0 2 17 0 8 15 0 7 18 0 2 11 0 6 2 0 4 12 0 9 19 0 10 10 0 11 14 0 12 19 0 10 12 0 9 14 0 12 16 0 13 19 0 10 6 0 14 19 0 10 7 0 15 4 0 16 3 0 17 19 0 10 10 0 11 19 0 10 3 0 17 18 0 2 19 0 10 17 0 8 16 0 13 17 0 8 19 0 10 18 0 2 8 0 1 19 0 10 7 0 15 19 0 10 8 0 1 19 0 10 6 0 14 4 0 16 5 0 18 4 0 16 6 0 14 9 0 0 18 0 2 0 0 19 1 0 3 0 0 19 18 0 2 45 1 20 50 1 21 40 1 22 45 1 20 49 1 23 50 1 21 50 1 21 27 1 24 28 1 25 36 1 26 50 1 21 28 1 25 40 1 22 50 1 21 36 1 26 51 1 27 42 1 28 38 1 29 51 1 27 46 1 30 42 1 28 30 1 31 51 1 27 29 1 32 51 1 27 34 1 33 29 1 32 51 1 27 38 1 29 34 1 33 38 2 34 39 3 35 34 4 36 35 5 37 34 4 36 39 3 35 50 1 21 33 1 38 27 1 24 26 1 39 27 1 24 33 1 38 31 6 40 30 7 41 25 6 42 24 7 43 25 6 42 30 7 41 27 8 44 21 9 45 28 10 46 22 11 47 28 10 46 21 9 45 51 1 27 30 1 31 32 1 48 31 1 49 32 1 48 30 1 31 36 12 50 37 13 51 40 14 52 41 15 53 40 14 52 37 13 51 49 16 54 48 17 55 46 18 56 47 19 57 46 18 56 48 17 55 34 4 36 35 5 37 29 20 58 23 21 59 29 20 58 35 5 37 45 22 60 44 23 61 49 16 54 48 17 55 49 16 54 44 23 61 29 20 58 23 21 59 30 7 41 24 7 43 30 7 41 23 21 59 46 18 56 47 19 57 42 24 62 43 25 63 42 24 62 47 19 57 42 24 62 43 25 63 38 2 34 39 3 35 38 2 34 43 25 63 40 14 52 41 15 53 45 22 60 44 23 61 45 22 60 41 15 53 50 1 21 49 1 23 51 1 27 46 1 30 51 1 27 49 1 23 28 10 46 22 11 47 36 12 50 37 13 51 36 12 50 22 11 47 26 26 64 20 26 65 27 8 44 21 9 45 27 8 44 20 26 65 59 27 66 87 27 67 96 28 68 126 29 69 118 30 70 128 31 71 133 32 72 115 33 73 132 34 74 83 35 75 73 36 76 81 37 77 91 38 78 90 39 79 70 40 80 104 41 81 133 32 72 113 42 82 112 43 83 131 44 84 144 45 85 66 46 86 57 47 87 90 48 79 85 49 88 90 50 79 57 47 87 111 51 89 132 52 74 102 53 90 129 54 91 102 53 90 132 55 74 81 56 77 65 57 92 83 58 75 74 59 93 83 58 75 65 57 92 113 60 82 111 61 89 119 62 94 110 63 95 119 62 94 111 61 89 57 64 87 56 65 96 69 66 97 72 67 98 69 66 97 56 65 96 62 68 99 79 69 100 55 70 101 76 71 102 55 70 101 79 69 100 125 72 103 116 73 104 121 74 105 124 75 106 121 74 105 116 73 104 138 76 107 139 77 108 89 77 109 67 78 110 89 77 109 139 77 108 114 79 111 134 80 112 105 81 113 73 36 76 71 82 114 82 83 115 79 84 100 82 83 115 71 82 114 68 85 116 91 86 78 59 86 66 87 87 67 59 86 66 91 86 78 124 75 106 116 73 104 127 88 117 118 30 70 127 88 117 116 73 104 90 48 79 91 89 78 66 46 86 68 90 116 66 46 86 91 91 78 68 92 116 74 59 93 66 93 86 65 57 92 66 93 86 74 59 93 80 94 118 71 82 114 75 95 119 78 96 120 75 95 119 71 82 114 105 97 113 99 98 121 107 99 122 100 100 123 107 99 122 99 98 121 131 101 84 140 102 124 130 103 125 137 104 126 130 103 125 140 102 124 104 105 81 97 106 127 136 107 128 135 107 129 136 107 128 97 106 127 82 83 115 77 108 130 73 36 76 81 37 77 73 36 76 77 108 130 88 109 131 67 110 110 92 111 132 70 40 80 92 111 132 67 110 110 126 29 69 122 112 133 118 30 70 127 88 117 118 30 70 122 112 133 123 113 134 128 31 71 116 73 104 118 30 70 116 73 104 128 114 71 70 40 80 67 110 110 91 38 78 87 115 67 91 38 78 67 110 110 109 116 135 100 117 123 108 118 136 99 119 121 108 118 136 100 117 123 64 120 137 63 121 138 55 122 101 54 123 139 55 122 101 63 121 138 88 109 131 84 124 140 67 110 110 89 125 109 67 110 110 84 124 140 115 33 73 133 32 72 112 43 83 104 41 81 112 43 83 133 32 72 52 126 141 59 127 66 96 128 68 96 128 68 94 129 142 93 130 143 52 126 141 96 128 68 93 130 143 80 131 118 64 132 137 76 133 102 55 134 101 76 133 102 64 132 137 90 39 79 85 135 88 70 40 80 92 111 132 70 40 80 85 135 88 125 136 103 121 137 105 109 138 135 100 139 123 109 138 135 121 137 105 73 36 76 83 35 75 71 82 114 78 96 120 71 82 114 83 35 75 113 140 82 119 141 94 104 105 81 106 142 144 104 105 81 119 141 94 109 116 135 108 118 136 103 143 145 80 94 118 76 144 102 71 82 114 79 84 100 71 82 114 76 144 102 52 126 141 93 130 143 97 106 127 135 107 129 97 106 127 93 130 143 74 145 93 61 146 146 83 147 75 78 148 120 83 147 75 61 146 146 63 121 138 58 149 147 89 150 109 86 151 148 89 150 109 58 149 147 119 141 94 128 152 71 106 142 144 123 153 134 106 142 144 128 152 71 126 154 69 128 155 71 110 63 95 119 62 94 110 63 95 128 156 71 114 157 111 105 158 113 117 159 149 107 160 122 117 161 149 105 158 113 69 162 97 72 67 98 60 163 150 62 164 99 60 163 150 72 67 98 60 163 150 62 165 99 54 166 139 55 70 101 54 166 139 62 165 99 143 167 151 106 142 144 120 168 152 123 153 134 120 168 152 106 142 144 140 76 124 131 169 84 141 169 153 112 170 83 141 169 153 131 169 84 56 171 96 65 57 92 77 172 130 81 56 77 77 172 130 65 57 92 54 123 139 63 121 138 84 173 140 89 150 109 84 173 140 63 121 138 101 174 154 122 175 133 110 63 95 126 154 69 110 63 95 122 175 133 132 34 74 115 33 73 129 176 91 134 177 112 129 176 91 115 33 73 132 52 74 111 51 89 133 32 72 113 42 82 133 32 72 111 51 89 63 121 138 64 120 137 53 178 155 53 178 155 58 149 147 63 121 138 68 179 116 59 127 66 74 180 93 61 181 146 74 180 93 59 127 66 142 182 156 61 183 146 53 184 157 52 126 141 53 184 157 61 183 146 61 181 146 59 127 66 52 126 141 143 167 151 98 185 158 106 142 144 104 105 81 106 142 144 98 185 158 98 185 158 97 106 127 104 105 81 139 186 108 94 187 142 96 28 68 67 188 110 139 186 108 96 28 68 67 110 110 96 189 68 87 115 67 72 67 98 56 190 96 82 191 115 77 172 130 82 191 115 56 190 96 69 192 97 60 163 150 92 193 132 88 194 131 92 193 132 60 163 150 117 195 149 127 196 117 101 197 154 122 175 133 101 197 154 127 196 117 108 118 136 131 101 84 103 143 145 130 103 125 103 143 145 131 101 84 102 198 90 114 199 111 101 200 154 117 161 149 101 200 154 114 199 111 98 185 158 53 184 157 97 106 127 52 126 141 97 106 127 53 184 157 84 201 140 88 194 131 54 166 139 60 163 150 54 166 139 88 194 131 125 72 103 120 202 152 116 73 104 123 113 134 116 73 104 120 202 152 136 203 128 141 204 153 104 204 81 112 205 83 104 204 81 141 204 153 115 33 73 112 43 83 134 177 112 144 45 85 134 177 112 112 43 83 62 206 99 72 67 98 79 69 100 82 191 115 79 69 100 72 67 98 57 47 87 69 207 97 85 49 88 92 193 132 85 49 88 69 207 97 107 208 122 124 209 106 117 161 149 127 196 117 117 161 149 124 209 106 102 53 90 129 54 91 114 210 111 134 80 112 114 210 111 129 54 91 64 132 137 80 131 118 142 211 156 75 212 119 142 213 156 80 131 118 66 93 86 65 57 92 57 214 87 56 215 96 57 216 87 65 57 92 111 61 89 102 217 90 110 63 95 101 218 154 110 63 95 102 219 90 61 220 146 142 221 156 78 148 120 75 222 119 78 222 120 142 223 156 107 224 122 100 100 123 124 209 106 121 225 105 124 209 106 100 100 123 89 150 109 86 151 148 138 226 107 95 227 159 138 226 107 86 151 148 99 119 121 144 228 85 108 118 136 131 101 84 108 118 136 144 228 85 134 229 112 144 45 85 99 230 121 105 231 113 109 138 135 143 232 151 120 232 152 125 136 103 151 233 160 150 234 161 148 235 162 149 234 163 148 235 162 150 234 161 152 236 164 151 233 160 147 236 165 148 235 162 147 236 165 151 233 160 182 1 166 181 1 167 197 1 168 183 1 169 182 1 166 197 1 168 184 1 170 183 1 169 197 1 168 185 1 171 184 1 170 197 1 168 197 1 168 181 1 167 180 1 172 180 1 172 179 1 173 197 1 168 179 1 173 178 1 174 197 1 168 178 1 174 177 1 175 197 1 168 176 1 176 175 1 177 197 1 168 177 1 175 176 1 176 197 1 168 190 0 178 191 0 179 198 0 180 193 0 181 194 0 182 198 0 180 195 0 183 196 0 184 198 0 180 194 0 182 195 0 183 198 0 180 190 0 178 198 0 180 189 0 185 188 0 186 189 0 185 198 0 180 193 0 181 198 0 180 192 0 187 198 0 180 191 0 179 192 0 187 187 0 188 188 0 186 198 0 180 186 0 189 187 0 188 198 0 180 159 237 190 170 238 191 158 239 192 169 240 193 158 239 192 170 238 191 162 241 194 161 242 195 184 243 196 183 244 169 184 243 196 161 242 195 170 238 191 171 245 197 192 246 187 193 247 181 192 246 187 171 245 197 165 248 198 166 249 199 187 250 200 188 251 186 187 250 200 166 249 199 155 252 201 156 253 202 166 249 199 167 254 203 166 249 199 156 253 202 167 255 203 168 256 204 189 257 185 190 258 178 189 257 185 168 256 204 195 259 205 173 260 206 196 261 207 174 262 208 196 261 207 173 260 206 163 263 209 174 262 208 162 241 194 173 260 206 162 241 194 174 262 208 160 264 210 182 265 166 161 242 195 183 244 169 161 242 195 182 265 166 164 266 211 165 248 198 186 267 212 187 250 200 186 267 212 165 248 198 157 268 213 168 256 204 156 269 202 167 270 203 156 269 202 168 256 204 157 268 213 179 271 173 158 239 192 180 272 172 158 239 192 179 271 173 154 273 214 176 274 215 155 252 201 177 275 175 155 252 201 176 274 215 172 276 216 173 260 206 194 277 182 195 259 205 194 277 182 173 260 206 159 237 190 160 278 210 170 238 191 171 279 197 170 238 191 160 278 210 159 237 190 181 280 167 160 281 210 182 265 166 160 281 210 181 280 167 156 282 202 178 283 174 157 268 213 179 271 173 157 268 213 178 283 174 171 284 197 172 276 216 193 247 181 194 277 182 193 247 181 172 276 216 160 285 210 161 242 195 171 286 197 172 276 216 171 286 197 161 242 195 158 239 192 180 272 172 159 237 190 181 280 167 159 237 190 180 272 172 153 287 217 175 288 218 154 273 214 176 274 215 154 273 214 175 288 218 153 287 217 154 273 214 164 266 211 165 248 198 164 266 211 154 273 214 155 252 201 166 249 199 154 273 214 165 248 198 154 273 214 166 249 199 184 243 196 185 289 219 162 241 194 163 263 209 162 241 194 185 289 219 168 256 204 169 240 193 190 258 178 191 290 179 190 258 178 169 240 193 157 268 213 158 239 192 168 256 204 169 240 193 168 256 204 158 239 192 161 242 195 162 241 194 172 276 216 173 260 206 172 276 216 162 241 194 156 291 202 155 252 201 178 283 174 177 275 175 178 283 174 155 252 201 169 240 193 170 238 191 191 290 179 192 246 187 191 290 179 170 238 191 167 292 203 189 257 185 166 249 199 188 251 186 166 249 199 189 257 185 203 293 220 200 294 221 202 295 222 199 294 223 202 295 222 200 294 221 204 296 224 203 293 220 201 296 225 202 295 222 201 296 225 203 293 220 208 297 226 207 297 227 205 297 228 206 297 229 205 297 228 207 297 227 210 298 230 209 298 231 211 298 232 212 298 233 211 298 232 209 298 231 222 1 0 231 1 2 221 1 1 214 1 3 215 1 4 231 1 2 231 1 2 224 1 6 226 1 5 231 1 2 226 1 5 228 1 7 231 1 2 228 1 7 230 1 8 231 1 2 215 1 4 224 1 6 225 1 9 223 1 11 232 1 10 227 1 12 225 1 9 232 1 10 227 1 12 232 1 10 229 1 13 219 1 14 220 1 15 232 1 10 217 1 16 232 1 10 216 1 17 223 1 11 216 1 17 232 1 10 231 1 2 230 1 8 232 1 10 229 1 13 232 1 10 230 1 8 231 1 2 232 1 10 221 1 1 220 1 15 221 1 1 232 1 10 232 1 10 217 1 16 219 1 14 218 1 18 219 1 14 217 1 16 222 1 0 213 1 19 231 1 2 214 1 3 231 1 2 213 1 19 258 0 20 253 0 22 263 0 21 258 0 20 263 0 21 262 0 23 263 0 21 241 0 25 240 0 24 249 0 26 241 0 25 263 0 21 253 0 22 249 0 26 263 0 21 264 0 27 251 0 29 255 0 28 264 0 27 255 0 28 259 0 30 243 0 31 242 0 32 264 0 27 264 0 27 242 0 32 247 0 33 264 0 27 247 0 33 251 0 29 251 2 34 247 299 36 252 3 35 248 300 37 252 3 35 247 299 36 263 0 21 240 0 24 246 0 38 239 0 39 246 0 38 240 0 24 244 6 40 238 6 42 243 7 41 237 7 43 243 7 41 238 6 42 240 8 44 241 301 46 234 9 45 235 11 47 234 9 45 241 301 46 264 0 27 245 0 48 243 0 31 244 0 49 243 0 31 245 0 48 249 12 50 253 302 52 250 303 51 254 15 53 250 303 51 253 302 52 262 16 54 259 18 56 261 17 55 260 19 57 261 17 55 259 18 56 247 299 36 242 20 58 248 300 37 236 21 59 248 300 37 242 20 58 258 304 60 262 16 54 257 305 61 261 17 55 257 305 61 262 16 54 242 20 58 243 7 41 236 21 59 237 7 43 236 21 59 243 7 41 259 18 56 255 24 62 260 19 57 256 25 63 260 19 57 255 24 62 255 24 62 251 2 34 256 25 63 252 3 35 256 25 63 251 2 34 253 302 52 258 304 60 254 15 53 257 305 61 254 15 53 258 304 60 263 0 21 264 0 27 262 0 23 259 0 30 262 0 23 264 0 27 241 301 46 249 12 50 235 11 47 250 303 51 235 11 47 249 12 50 239 26 64 240 8 44 233 26 65 234 9 45 233 26 65 240 8 44</p>
                </polylist>
                <extra>
                    <technique profile="modo401">
                        <param sid="render" name="Render" type="Name">default</param>
                        <param sid="dissolve" name="Dissolve" type="float">0</param>
                        <param sid="curves" name="Render_Curves" type="bool">false</param>
                        <param sid="radius" name="Curve_Radius" type="float">0.05</param>
                    </technique>
                </extra>
            </mesh>
        </geometry>
    </library_geometries>
    <library_nodes id="shader_tree" name="Shader_Tree">
        <node sid="shader_tree_render" name="Render">
            <extra>
                <technique profile="modo401">
                    <param sid="first" name="Frame_Range_First" type="int">1</param>
                    <param sid="last" name="Frame_Range_Last" type="int">120</param>
                    <param sid="dpi" name="Frame_DPI" type="float">300</param>
                    <param sid="resUnit" name="Resolution_Unit" type="Name">pixels</param>
                    <param sid="pAspect" name="Frame_Pixel_Aspect_Ratio" type="float">1</param>
                    <param sid="bucketX" name="Bucket_Width" type="int">32</param>
                    <param sid="bucketY" name="Bucket_Height" type="int">32</param>
                    <param sid="bktOrder" name="Bucket_Order" type="Name">hilbert</param>
                    <param sid="bktSkip" name="Skip_Existing_Buckets" type="bool">false</param>
                    <param sid="region" name="Render_Region" type="bool">false</param>
                    <param sid="regX0" name="Render_Region_Left" type="float">0</param>
                    <param sid="regX1" name="Render_Region_Right" type="float">1</param>
                    <param sid="regY0" name="Render_Region_Top" type="float">0</param>
                    <param sid="regY1" name="Render_Region_Bottom" type="float">1</param>
                    <param sid="aa" name="Render_Antialiasing" type="Name">s8</param>
                    <param sid="aaFilter" name="Render_Antialiasing_Filter" type="Name">gaussian</param>
                    <param sid="fineRate" name="Refinement_Shading_Rate" type="float">0.25</param>
                    <param sid="fineThresh" name="Refinement_Threshold" type="float">0.1</param>
                    <param sid="bktRefine" name="Refine_Bucket_Borders" type="bool">false</param>
                    <param sid="dof" name="Render_Depth_of_Field" type="bool">false</param>
                    <param sid="mBlur" name="Render_Motion_Blur" type="bool">false</param>
                    <param sid="stereo" name="Render_Stereoscopic" type="bool">false</param>
                    <param sid="rayShadow" name="Ray_Tracing_Shadows" type="bool">true</param>
                    <param sid="reflDepth" name="Reflection_Depth" type="int">8</param>
                    <param sid="refrDepth" name="Refraction_Depth" type="int">8</param>
                    <param sid="rayThresh" name="Ray_Threshold" type="float">0.001</param>
                    <param sid="subdAdapt" name="Adaptive_Subdivision" type="bool">false</param>
                    <param sid="subdRate" name="Subdivision_Rate" type="float">10</param>
                    <param sid="dispEnable" name="Micropoly_Displacement" type="bool">true</param>
                    <param sid="dispRate" name="Displacement_Rate" type="float">1</param>
                    <param sid="dispRatio" name="Displacement_Ratio" type="float">4</param>
                    <param sid="edgeMin" name="Minimum_Edge_Length" type="float">0.0001</param>
                    <param sid="dispSmooth" name="Smooth_Positions" type="bool">true</param>
                    <param sid="ambRad" name="Ambient_Intensity" type="float">0.05</param>
                    <param sid="ambColor" name="Ambient_Color" type="color">1 1 1</param>
                    <param sid="globEnable" name="Enable_Indirect_Illumination" type="bool">false</param>
                    <param sid="globScope" name="Indirect_Illumination_Scope" type="Name">all</param>
                    <param sid="globRays" name="Indirect_Rays" type="int">64</param>
                    <param sid="globLimit" name="Indirect_Bounces" type="int">1</param>
                    <param sid="globRange" name="Indirect_Range" type="float">0</param>
                    <param sid="globSubs" name="Subsurface_Scattering" type="int">0</param>
                    <param sid="globVols" name="Volumetrics_Affect_Indirect" type="bool">false</param>
                    <param sid="irrCache" name="Enable_Irradiance_Caching" type="bool">true</param>
                    <param sid="irrRays" name="Irradiance_Rays" type="int">256</param>
                    <param sid="globSuper" name="Indirect_Supersampling" type="bool">true</param>
                    <param sid="irrRate" name="Irradiance_Rate" type="float">2.5</param>
                    <param sid="irrRatio" name="Irradiance_Ratio" type="float">6</param>
                    <param sid="irrVals" name="Interpolation_Values" type="int">1</param>
                    <param sid="irrGrads" name="Irradiance_Gradients" type="Name">both</param>
                    <param sid="irrWalk" name="Walkthrough_Mode" type="bool">false</param>
                    <param sid="irrLEnable" name="Load_Irradiance_before_Render" type="bool">false</param>
                    <param sid="irrLName" name="Load_Irradiance_File" type="Name"></param>
                    <param sid="irrSEnable" name="Save_Irradiance_after_Render" type="bool">false</param>
                    <param sid="irrSName" name="Save_Irradiance_File" type="Name"></param>
                    <param sid="causEnable" name="Enable_Direct_Caustics" type="bool">false</param>
                    <param sid="causTotal" name="Caustics_Total_Photons" type="int">100000</param>
                    <param sid="causLocal" name="Caustics_Local_Photons" type="int">32</param>
                    <param sid="globCaus" name="Indirect_Caustics" type="Name">refraction</param>
                </technique>
            </extra>
        </node>
        <node sid="shader_tree_environment" name="Environment">
            <extra>
                <technique profile="modo401">
                    <param sid="radiance" name="Environment_Intensity" type="float">1</param>
                    <param sid="visCam" name="Environment_Visible_to_Camera" type="bool">true</param>
                    <param sid="visInd" name="Environment_Visible_to_Indirect_Rays" type="bool">true</param>
                    <param sid="visRefl" name="Environment_Visible_to_Reflection_Rays" type="bool">true</param>
                    <param sid="visRefr" name="Environment_Visible_to_Refraction_Rays" type="bool">true</param>
                </technique>
            </extra>
        </node>
    </library_nodes>
    <library_visual_scenes>
        <visual_scene id="DefaultScene">
            <node id="Geometry-mesh016Node" name="Mesh" type="NODE">
                <matrix sid="transform">
        1 0 0 0
        0 1 0 0
        0 0 1 0
        0 0 0 1
    </matrix>
                <instance_geometry url="#Geometry-mesh016">
                    <bind_material>
                        <technique_common>
                            <instance_material symbol="Material-bbvipmat" target="#Material-bbvipmat">
                                <bind_vertex_input semantic="uvvip" input_semantic="TEXCOORD" input_set="0" />
                            </instance_material>
                        </technique_common>
                    </bind_material>
                </instance_geometry>
            </node>
            <extra>
                <technique profile="modo401">
                    <param sid="fps" name="Scene_FPS" type="float">24</param>
                    <param sid="sceneS" name="Scene_Start_Time" type="float">0</param>
                    <param sid="sceneE" name="Scene_End_Time" type="float">5</param>
                    <param sid="currentS" name="Scene_Current_Start_Time" type="float">0</param>
                    <param sid="currentE" name="Scene_Current_End_Time" type="float">5</param>
                    <param sid="timeSys" name="Scene_Time_System" type="Name">frames</param>
                </technique>
            </extra>
            <extra>
                <technique profile="MAX3D">
                    <frame_rate>24</frame_rate>
                </technique>
            </extra>
            <extra>
                <technique profile="MAYA">
                    <start_time>0</start_time>
                    <end_time>5</end_time>
                </technique>
            </extra>
            <extra>
                <technique profile="OKINO" />
            </extra>
            <extra>
                <technique profile="XSI">
                    <SI_Scene>
                        <frame_rate>24</frame_rate>
                    </SI_Scene>
                </technique>
            </extra>
        </visual_scene>
    </library_visual_scenes>
    <scene>
        <instance_visual_scene url="#DefaultScene" />
    </scene>
</COLLADA>
